<?xml version="1.0" standalone="no"?>
<svg xmlns="http://www.w3.org/2000/svg" viewBox="0 0 71.03999999999999 52.84" width="71.03999999999999" height="52.84"><rect fill="none" stroke="#ead017" stroke-width="4" width="67.03999999999999" height="48.84" x="2" y="2"></rect><path fill="#000000" fill-rule="nonzero" d="M0.40 0.44L24 0.44L24.40 10.48L23.64 10.48Q21.88 5.16 20.52 3.22Q19.16 1.28 16.60 1.28L16.60 1.28L16.12 1.28L16.12 27.60L19.52 27.60L19.52 28.44L4.92 28.44L4.92 27.60L8.32 27.60L8.32 1.28L7.80 1.28Q5.24 1.28 3.84 3.30Q2.44 5.32 0.76 10.48L0.76 10.48L0 10.48L0.40 0.44ZM37.68 28L37.68 28Q39.68 28 41.22 26.92Q42.76 25.84 42.76 23.66Q42.76 21.48 41.10 20.32Q39.44 19.16 36.38 18.30Q33.32 17.44 31.94 16.80Q30.56 16.16 29.32 15.12L29.32 15.12Q26.84 13.04 26.84 8.68L26.84 8.68Q26.84 5.12 29.38 2.56Q31.92 0 36.32 0L36.32 0Q38.44 0 40.74 0.62Q43.04 1.24 43.60 1.24Q44.16 1.24 44.60 0.44L44.60 0.44L45.04 0.44L45.32 8.52L44.68 8.52Q42.76 5.04 40.66 2.94Q38.56 0.84 36.10 0.84Q33.64 0.84 32.28 1.98Q30.92 3.12 30.92 5.02Q30.92 6.92 32.54 7.94Q34.16 8.96 36.52 9.60Q38.88 10.24 39.62 10.48Q40.36 10.72 41.46 11.14Q42.56 11.56 43.26 12.02Q43.96 12.48 44.74 13.18Q45.52 13.88 45.96 14.72L45.96 14.72Q47.04 16.64 47.04 19.28L47.04 19.28Q47.04 23.60 44.34 26.22Q41.64 28.84 37.24 28.84L37.24 28.84Q34.96 28.84 32.02 28.24Q29.08 27.64 28.76 27.64L28.76 27.64Q28.20 27.64 27.68 28.84L27.68 28.84L27.12 28.84L26.72 19.32L27.40 19.32Q29.16 22.80 31.90 25.40Q34.64 28 37.68 28Z" transform="translate(11.999999999999996 12.001) scale(1)"></path></svg>